# xmcd CD database file
#
# Track frame offsets:
#	150
#	8922
#	25330
#	36122
#	54353
#	70172
#	83650
#	97775
#	116558
#	136317
#	150837
#	165615
#	180267
#	203255
#	220300
#	241433
#
# Disc length: 3366 seconds
#
# Revision: 0
# Processed by: cddbd v1.5.2PL0 Copyright (c) Steve Scherf et al.
# Submitted via: CDex 2.12
#
DISCID=ba0d2410
DTITLE=Die Franz Posch Combo - Galanacht im Tanzcafe
DYEAR=1998
DGENRE=Jazz
TTITLE0=Mambo Nr. 8
TTITLE1=Careless Love
TTITLE2=La Bamba
TTITLE3=Creole Love Call Blues
TTITLE4=I Just Want to Make Love To You
TTITLE5=Lupita
TTITLE6=My Temptation
TTITLE7=Blue Monk
TTITLE8=Minnie The Moocher
TTITLE9=Pussy Footin'
TTITLE10=Isle of Capri
TTITLE11=Kazutski
TTITLE12=Basin Street Blues
TTITLE13=Wild Cat Blues
TTITLE14=Sentimental Journey
TTITLE15=Tequila
EXTD=YEAR: 1998
EXTT0=
EXTT1=
EXTT2=
EXTT3=
EXTT4=
EXTT5=
EXTT6=
EXTT7=
EXTT8=
EXTT9=
EXTT10=
EXTT11=
EXTT12=
EXTT13=
EXTT14=
EXTT15=
PLAYORDER=
